<svg width="1713" height="361" viewBox="0 0 1713 361" fill="none" xmlns="http://www.w3.org/2000/svg">
<path d="M20 25C122.96 25 225.92 25 332 25C332 127.63 332 230.26 332 336C229.04 336 126.08 336 20 336C20 233.37 20 130.74 20 25Z" fill="#FE0202"/>
<path d="M331.999 28C331.999 129.64 331.999 231.28 331.999 336C329.029 336 326.059 336 322.999 336C319.664 323.134 318.912 309.685 318.245 296.453C318.063 293.093 318.063 293.093 317.517 290.181C313.965 268.367 314.663 245.318 314.426 223.27C314.396 220.553 314.346 217.837 314.281 215.121C314.197 211.261 314.166 207.404 314.148 203.543C314.095 201.8 314.095 201.8 314.042 200.021C314.084 192.162 314.084 192.162 316.757 188.771C318.76 187.024 320.829 185.529 322.999 184C325.295 181.244 325.295 181.244 326.999 178.562C327.577 177.698 328.154 176.833 328.749 175.941C329.162 175.301 329.574 174.66 329.999 174C329.04 174.99 329.04 174.99 328.062 176C324.216 179.846 320.179 183.52 315.999 187C315.669 187 315.339 187 314.999 187C314.999 175.78 314.999 164.56 314.999 153C307.067 186.23 303.906 219.881 302.999 254C302.339 254 301.679 254 300.999 254C290.063 239.371 286.629 220.459 282.999 203C285.472 232.472 285.472 232.472 297.444 258.892C302.147 265.054 302.928 269.969 303.023 277.598C303.059 278.673 303.094 279.747 303.131 280.855C303.239 284.257 303.307 287.659 303.374 291.062C303.441 293.382 303.51 295.702 303.581 298.021C303.75 303.68 303.887 309.34 303.999 315C288.287 312.082 274.242 299.75 262.999 289C262.326 288.39 261.653 287.781 260.96 287.152C242.156 269.51 231.925 244.456 230.874 218.958C229.829 182.831 237.075 148.713 254.095 116.71C254.891 115.205 255.657 113.684 256.417 112.16C271.701 82.3553 297.711 52.9423 323.999 32.4375C324.564 31.9951 325.128 31.5527 325.71 31.0969C329.757 28 329.757 28 331.999 28Z" fill="#FEFCFC"/>
<path d="M183.06 141.151C185.51 142.223 186.058 143.168 187.298 145.516C187.894 146.634 187.894 146.634 188.502 147.774C188.914 148.591 189.326 149.408 189.751 150.25C190.404 151.526 190.404 151.526 191.07 152.827C210.99 192.653 217.469 237.648 203.876 280.551C197.149 299.381 184.65 311.473 167.173 320.453C161.613 323 161.613 323 159.001 323C158.506 329.435 158.506 329.435 158.001 336C156.021 336 154.041 336 152.001 336C151.946 334.901 151.89 333.802 151.833 332.67C151.625 328.551 151.414 324.433 151.201 320.314C151.11 318.539 151.02 316.765 150.931 314.99C150.802 312.423 150.669 309.856 150.536 307.289C150.498 306.509 150.459 305.73 150.419 304.927C150.21 300.958 149.913 297.02 149.487 293.068C148.952 287.917 148.782 282.793 148.685 277.617C148.664 276.677 148.643 275.737 148.622 274.768C148.557 271.804 148.498 268.839 148.438 265.875C148.395 263.849 148.352 261.823 148.308 259.797C148.201 254.865 148.1 249.932 148.001 245C146.139 255.097 144.431 265.155 143.376 275.375C143.251 276.57 143.126 277.765 142.998 278.997C141.493 294.622 141.253 310.313 141.001 326C125.373 319.411 115.128 310.068 108.317 294.387C98.6957 269.633 99.4276 242.5 110.035 218.103C115.789 205.571 122.999 194.421 132.001 184C132.44 183.488 132.879 182.975 133.332 182.448C144.835 169.159 157.906 157.793 172.071 147.426C173.37 146.466 174.653 145.483 175.919 144.48C180.475 140.961 180.475 140.961 183.06 141.151Z" fill="#FEFCFC"/>
<path d="M64.1758 225.844C77.0608 234.011 83.3958 246.613 87 261C90.3413 280.976 89.2835 303.57 79.9885 321.848C78.8791 324.105 78.8791 324.105 78.1658 327.101C76.6392 331.254 75.4911 333.221 72 336C63.5043 338.113 54.2019 337.106 45.5625 336.75C37.1269 336.502 28.6912 336.255 20 336C20 304.98 20 273.96 20 242C20.66 242 21.32 242 22 242C22.2475 241.257 22.495 240.515 22.75 239.75C25.8422 232.947 33.4841 227.915 40.125 224.844C47.4967 222.68 57.082 222.52 64.1758 225.844Z" fill="#FDFCFC"/>
<path d="M748 126C752.95 126 757.9 126 763 126C763.55 127.906 763.55 127.906 764.111 129.851C771.757 156.338 779.576 182.749 788 209C792.117 199.595 795.483 190.022 798.738 180.297C799.269 178.722 799.8 177.147 800.331 175.573C801.714 171.471 803.092 167.367 804.469 163.263C805.88 159.058 807.297 154.855 808.713 150.652C811.48 142.436 814.242 134.219 817 126C820.3 126 823.6 126 827 126C827.699 128.098 828.398 130.195 829.098 132.293C829.324 132.97 829.549 133.648 829.782 134.346C831.073 138.219 832.364 142.093 833.653 145.967C836.453 154.376 839.26 162.782 842.087 171.183C843.471 175.298 844.852 179.415 846.232 183.532C846.911 185.553 847.591 187.573 848.273 189.592C849.233 192.436 850.187 195.282 851.141 198.129C851.431 198.984 851.721 199.838 852.02 200.719C852.282 201.505 852.544 202.29 852.813 203.1C853.044 203.784 853.274 204.468 853.511 205.173C854 207 854 207 854 210C854.66 210 855.32 210 856 210C856.092 209.23 856.184 208.46 856.279 207.667C857.251 202.723 858.896 198.094 860.535 193.336C865.107 179.847 869.288 166.249 873.438 152.625C874.513 149.097 875.59 145.57 876.669 142.043C877.332 139.876 877.993 137.708 878.652 135.539C878.947 134.576 879.241 133.612 879.545 132.62C879.803 131.773 880.06 130.926 880.326 130.053C881 128 881 128 882 126C885.63 126 889.26 126 893 126C890.853 133.405 888.387 140.632 885.75 147.875C880.464 162.526 875.443 177.265 870.442 192.015C866.365 204.035 862.215 216.028 858 228C854.37 228 850.74 228 847 228C844.038 220.362 841.494 212.587 838.93 204.809C838.691 204.085 838.452 203.362 838.206 202.617C836.945 198.797 835.686 194.977 834.429 191.156C833.135 187.224 831.834 183.296 830.532 179.368C829.526 176.329 828.525 173.289 827.526 170.249C827.049 168.8 826.57 167.351 826.088 165.904C825.415 163.877 824.749 161.848 824.085 159.818C823.706 158.668 823.326 157.517 822.935 156.332C821.97 152.893 821.426 149.543 821 146C820.34 146 819.68 146 819 146C818.75 147.247 818.5 148.494 818.243 149.778C816.962 155.524 815.063 161.003 813.113 166.551C812.543 168.192 812.543 168.192 811.961 169.866C810.75 173.35 809.531 176.831 808.312 180.312C807.513 182.607 806.714 184.902 805.916 187.197C804.358 191.674 802.795 196.149 801.229 200.624C799.775 204.777 798.33 208.933 796.892 213.091C796.568 214.027 796.244 214.962 795.909 215.925C795.305 217.669 794.703 219.414 794.103 221.159C792.113 226.887 792.113 226.887 791 228C789.147 228.072 787.292 228.084 785.438 228.062C784.426 228.053 783.414 228.044 782.371 228.035C781.589 228.024 780.806 228.012 780 228C779.323 225.885 778.646 223.769 777.969 221.654C777.352 219.724 776.734 217.795 776.117 215.865C774.36 210.375 772.603 204.885 770.848 199.395C767.411 188.65 763.972 177.906 760.517 167.167C759.033 162.554 757.551 157.941 756.07 153.328C755.356 151.109 754.642 148.889 753.926 146.67C752.927 143.573 751.932 140.474 750.938 137.375C750.638 136.45 750.339 135.525 750.031 134.573C749.762 133.731 749.492 132.89 749.215 132.023C748.979 131.29 748.743 130.557 748.5 129.802C748 128 748 128 748 126Z" fill="black"/>
<path d="M996.001 137C1004.52 143.581 1010.23 154.864 1011.79 165.457C1013.19 182.343 1010.24 198.029 999.884 211.82C988.636 224.205 973.189 228.962 956.973 230.238C940.967 230.675 925.96 225.802 914.001 215C903.693 203.427 899.368 189.698 899.688 174.305C901.039 160.022 905.803 146.991 916.473 137.066C939.246 118.447 972.905 119.551 996.001 137ZM928.001 141C916.486 155.06 914.623 171.425 916.001 189C918.027 200.604 923.834 210.558 933.001 218C942.612 224.188 953.593 225.318 964.743 223.57C975.316 220.902 983.83 212.8 989.438 203.656C990.773 201.146 991.919 198.628 993.001 196C993.322 195.238 993.643 194.476 993.973 193.691C998.069 181.786 998.039 165.121 993.263 153.473C987.636 142.445 980.549 135.66 969.001 131C954.266 127.094 938.904 130.203 928.001 141Z" fill="black"/>
<path d="M1478.97 135.367C1488.51 142.785 1494.2 154.19 1496 166C1497.19 184.077 1494.12 199.512 1482.22 213.68C1470.76 225.66 1454.74 229.74 1438.63 230.313C1423.03 229.927 1409.49 225.184 1398.19 214.352C1385.73 200.962 1384.26 186.251 1384.83 168.76C1385.61 156.383 1391.87 145.67 1400.69 137.188C1422.44 118.821 1456.09 119.509 1478.97 135.367ZM1409.81 144.313C1400.57 158.025 1398.08 174.164 1400.5 190.363C1402.97 201.453 1408.73 212.25 1418.46 218.605C1428.76 224.002 1439.61 225.821 1451.06 223C1462.59 219.015 1470.07 210.727 1475.47 200.117C1482.48 184.552 1482.8 168.187 1476.97 152.164C1472 141.241 1463.91 135.503 1453 131C1436.59 125.381 1420.99 132.493 1409.81 144.313Z" fill="black"/>
<path d="M1301 126C1351.92 126 1351.92 126 1361.88 134.438C1367.17 140.82 1366.69 148.068 1366 156C1364.28 163.141 1358.77 167.826 1353 172C1347.74 175.046 1343.03 176.247 1337 177C1337.67 177.848 1338.33 178.696 1339.02 179.57C1339.46 180.13 1339.9 180.689 1340.35 181.265C1341.34 182.525 1342.33 183.784 1343.32 185.043C1345.79 188.187 1348.26 191.333 1350.72 194.484C1356.78 202.23 1362.94 209.886 1369.15 217.504C1369.64 218.103 1370.13 218.703 1370.63 219.321C1371.87 220.837 1373.12 222.339 1374.38 223.84C1376 226 1376 226 1376 228C1360.98 230.062 1360.98 230.062 1356.34 226.852C1353.35 223.641 1351.29 219.816 1349.18 215.993C1347.22 212.673 1344.8 209.739 1342.38 206.75C1341.45 205.584 1340.52 204.417 1339.6 203.25C1338.73 202.166 1337.87 201.083 1337 200C1336.28 199.092 1335.55 198.185 1334.81 197.25C1333.51 195.627 1332.21 194.008 1330.9 192.395C1329.55 190.689 1328.23 188.954 1326.94 187.199C1326.26 186.288 1325.58 185.376 1324.88 184.438C1324.27 183.611 1323.67 182.785 1323.05 181.934C1320.73 179.383 1320.73 179.383 1315 179C1315 195.17 1315 211.34 1315 228C1310.38 228 1305.76 228 1301 228C1301 194.34 1301 160.68 1301 126ZM1315 132C1315 145.2 1315 158.4 1315 172C1331.7 172.717 1331.7 172.717 1345.31 166.812C1350.13 161.773 1352.22 157.4 1352.44 150.375C1352.17 144.159 1350.69 140.687 1346.25 136.25C1339.51 131.582 1333 131.735 1325.06 131.875C1320.08 131.937 1320.08 131.937 1315 132Z" fill="black"/>
<path d="M1032 126C1039 126 1039 126 1041 127.278C1041.52 127.872 1042.04 128.466 1042.58 129.078C1043.18 129.738 1043.77 130.399 1044.39 131.079C1045.31 132.154 1045.31 132.154 1046.25 133.25C1046.9 133.979 1047.56 134.709 1048.23 135.46C1049.55 136.938 1050.86 138.423 1052.17 139.914C1054.65 142.737 1057.2 145.492 1059.75 148.25C1061.5 150.166 1063.25 152.083 1065 154C1066.81 155.98 1068.62 157.959 1070.44 159.938C1070.89 160.431 1071.34 160.924 1071.81 161.433C1075.18 165.108 1078.56 168.774 1081.94 172.438C1082.43 172.975 1082.93 173.512 1083.44 174.065C1086.01 176.844 1088.57 179.62 1091.14 182.395C1091.92 183.238 1091.92 183.238 1092.72 184.098C1093.69 185.149 1094.67 186.199 1095.64 187.248C1099.83 191.776 1103.9 196.386 1108 201C1108.33 176.25 1108.66 151.5 1109 126C1112.3 126 1115.6 126 1119 126C1119 159.66 1119 193.32 1119 228C1113 228 1113 228 1110.25 225.656C1109.34 224.619 1108.44 223.566 1107.56 222.5C1107.08 221.948 1106.6 221.397 1106.11 220.828C1104.72 219.231 1103.36 217.617 1102 216C1100.84 214.664 1099.67 213.331 1098.5 212C1097.96 211.379 1097.42 210.757 1096.87 210.117C1094.02 206.891 1091.1 203.733 1088.19 200.567C1083.02 194.946 1077.93 189.263 1072.83 183.578C1068.7 178.986 1064.55 174.418 1060.38 169.875C1054.1 163.042 1048.04 156.047 1042 149C1041.67 175.07 1041.34 201.14 1041 228C1038.03 228 1035.06 228 1032 228C1032 194.34 1032 160.68 1032 126Z" fill="black"/>
<path d="M1279 132C1278.01 135.96 1277.02 139.92 1276 144C1271.48 144 1271.05 143.561 1267.81 140.75C1257.59 132.497 1246.18 130.126 1233.21 131.465C1222.9 133.184 1214.45 137.501 1207.81 145.625C1198.63 158.691 1197.4 174.215 1199.63 189.688C1201.73 199.631 1206.93 209.979 1215.54 215.684C1223.98 220.534 1231.57 222.352 1241.19 222.313C1241.95 222.329 1242.71 222.345 1243.49 222.362C1250.96 222.368 1256.28 220.781 1264 219C1264 206.13 1264 193.26 1264 180C1268.62 180 1273.24 180 1278 180C1278 194.19 1278 208.38 1278 223C1256.21 230.265 1230.56 234.428 1208.82 224.469C1197.07 218.346 1189.2 209.712 1185 197C1180.37 180.541 1181.48 162.6 1189.81 147.625C1197.31 136.077 1208 129.938 1221 126C1221.73 125.773 1222.46 125.546 1223.22 125.313C1241.57 120.669 1262.17 124.216 1279 132Z" fill="black"/>
<path d="M554 126C558.62 126 563.24 126 568 126C568 141.18 568 156.36 568 172C572.829 168.881 572.829 168.881 576.957 165.286C577.454 164.792 577.952 164.297 578.464 163.788C578.98 163.265 579.496 162.742 580.027 162.203C580.579 161.651 581.131 161.098 581.7 160.529C582.861 159.365 584.02 158.198 585.177 157.029C586.924 155.264 588.679 153.506 590.436 151.75C596.921 145.244 603.315 138.72 608.977 131.469C611.914 127.96 613.763 126.182 618.398 125.5C621.638 125.5 624.781 125.647 628 126C623.899 130.886 619.65 135.505 615.125 140C614.265 140.866 614.265 140.866 613.387 141.75C610.387 144.743 607.329 147.614 604.117 150.379C599.525 154.349 595.267 158.623 591 162.938C590.225 163.717 589.451 164.496 588.652 165.299C586.766 167.197 584.882 169.097 583 171C587.063 176.68 591.468 181.79 596.312 186.812C601.446 192.206 606.316 197.664 610.957 203.488C613.078 206.096 615.296 208.581 617.562 211.062C630 224.748 630 224.748 630 228C624.013 228.763 617.924 229.492 612 228C608.101 224.887 605.81 221.144 603.268 216.938C600.998 213.468 598.199 210.457 595.438 207.375C594.325 206.11 593.214 204.843 592.105 203.574C591.576 202.969 591.047 202.363 590.501 201.74C587.635 198.419 584.899 194.992 582.145 191.578C579.11 187.93 575.894 184.46 572.652 180.996C571 179 571 179 571 177C570.34 177 569.68 177 569 177C568.67 193.83 568.34 210.66 568 228C563.38 228 558.76 228 554 228C554 194.34 554 160.68 554 126Z" fill="black"/>
<path d="M645 126C649.62 126 654.24 126 659 126C659.01 127.916 659.019 129.831 659.029 131.805C659.065 138.199 659.119 144.593 659.184 150.987C659.224 154.856 659.256 158.725 659.271 162.595C659.287 166.343 659.322 170.09 659.369 173.838C659.383 175.254 659.391 176.67 659.392 178.085C659.407 189.914 660.056 205.105 668.223 214.52C676.835 221.693 688.354 221.931 699 221C706.774 219.425 711.629 215.516 716 209C722.741 198.033 722.298 183.967 722.415 171.508C722.434 170.196 722.453 168.884 722.473 167.532C722.524 164.097 722.564 160.661 722.601 157.225C722.642 153.698 722.693 150.171 722.743 146.645C722.839 139.763 722.923 132.882 723 126C725.97 126 728.94 126 732 126C732.07 134.511 732.124 143.022 732.156 151.534C732.171 155.487 732.193 159.44 732.227 163.394C732.26 167.219 732.277 171.045 732.285 174.87C732.291 176.319 732.301 177.768 732.318 179.217C732.474 193.689 731.093 207.206 720.926 218.254C710.473 228.16 698.284 230.467 684.2 230.184C672.476 229.511 662.419 226.176 653.754 217.984C643.575 206.467 644.692 188.9 644.805 174.438C644.809 173.025 644.812 171.613 644.814 170.201C644.821 166.545 644.841 162.889 644.863 159.233C644.884 155.479 644.893 151.724 644.903 147.969C644.924 140.646 644.959 133.323 645 126Z" fill="black"/>
<path d="M1515 126C1519.62 126 1524.24 126 1529 126C1529.02 127.805 1529.04 129.61 1529.06 131.469C1529.13 137.488 1529.21 143.507 1529.29 149.526C1529.34 153.169 1529.38 156.812 1529.42 160.455C1529.46 163.982 1529.51 167.509 1529.56 171.036C1529.59 173.011 1529.6 174.986 1529.62 176.961C1529.83 190.26 1530.76 202.273 1537.69 213.812C1545.26 220.977 1555.22 221.359 1565.07 221.227C1569.8 220.954 1572.78 220.07 1577 218C1577.95 217.691 1578.9 217.381 1579.88 217.062C1582.54 215.728 1582.76 214.666 1584 212C1584.83 210.561 1585.66 209.123 1586.5 207.688C1592.44 197 1592.17 185.565 1592.32 173.656C1592.34 172.278 1592.36 170.899 1592.38 169.52C1592.43 165.917 1592.48 162.313 1592.53 158.71C1592.58 155.023 1592.64 151.336 1592.69 147.648C1592.8 140.432 1592.9 133.216 1593 126C1595.97 126 1598.94 126 1602 126C1602.07 134.659 1602.12 143.318 1602.16 151.977C1602.17 155.998 1602.19 160.02 1602.23 164.042C1602.26 167.932 1602.28 171.823 1602.28 175.713C1602.29 177.188 1602.3 178.663 1602.32 180.138C1602.47 194.905 1600.62 208.017 1590.38 219.25C1580.44 228.605 1567.28 230.436 1554.14 230.188C1541.96 229.459 1531.16 225.234 1522.5 216.48C1513.35 205.254 1514.85 186.923 1514.9 173.363C1514.9 171.989 1514.91 170.615 1514.91 169.24C1514.91 165.661 1514.92 162.083 1514.93 158.504C1514.94 154.837 1514.95 151.169 1514.95 147.502C1514.96 140.335 1514.98 133.167 1515 126Z" fill="black"/>
<path d="M1628 126C1677.79 126 1677.79 126 1688 133C1693.07 138.067 1693.62 145.102 1694 152C1693.49 160.396 1691.09 166.19 1685 172.062C1680.25 175.944 1674.74 177.989 1669 180C1668.29 180.249 1667.59 180.498 1666.86 180.754C1658.73 183.042 1650.43 182 1642 182C1642 197.18 1642 212.36 1642 228C1637.38 228 1632.76 228 1628 228C1628 194.34 1628 160.68 1628 126ZM1642 133C1642 146.86 1642 160.72 1642 175C1659.18 175.559 1659.18 175.559 1673 168C1678.05 161.383 1679.94 155.307 1679 147C1677.61 142.024 1675.97 138.792 1671.94 135.5C1666.93 132.942 1662.69 132.674 1657.19 132.375C1656.39 132.323 1655.6 132.272 1654.78 132.219C1654 132.175 1653.22 132.131 1652.42 132.086C1651.36 132.025 1651.36 132.025 1650.29 131.962C1647.36 131.954 1647.36 131.954 1642 133Z" fill="black"/>
<path d="M372 126C424.936 126 424.936 126 433 134C437.331 138.791 437.363 144.41 437.438 150.562C437.453 151.643 437.453 151.643 437.469 152.745C437.339 160.594 434.454 166.381 429.137 172.145C425.226 175.54 420.844 177.295 416 179C415.095 179.32 414.19 179.639 413.258 179.969C403.749 182.814 396.628 182 386 182C386 197.18 386 212.36 386 228C381.38 228 376.76 228 372 228C372 194.34 372 160.68 372 126ZM386 133C386 146.86 386 160.72 386 175C403.832 175.481 403.832 175.481 418 167C422.404 161.062 423.704 155.304 423 148C421.809 142.165 419.318 138.83 414.719 135.129C410.575 132.407 405.968 132.635 401.188 132.375C400.393 132.323 399.598 132.272 398.779 132.219C398 132.175 397.221 132.131 396.418 132.086C395.363 132.025 395.363 132.025 394.286 131.962C391.362 131.954 391.362 131.954 386 133Z" fill="black"/>
<path d="M491 124C493.401 124.351 493.401 124.351 496 125C497.58 127.378 497.58 127.378 498.961 130.637C499.224 131.243 499.488 131.85 499.759 132.475C500.65 134.538 501.512 136.612 502.375 138.688C503.006 140.165 503.639 141.642 504.273 143.118C505.707 146.465 507.128 149.818 508.541 153.174C511.31 159.745 514.116 166.3 516.922 172.855C520.962 182.303 524.992 191.753 529.008 201.211C529.438 202.222 529.867 203.234 530.31 204.276C531.13 206.209 531.948 208.142 532.763 210.076C533.642 212.153 534.529 214.225 535.422 216.295C535.881 217.369 536.339 218.443 536.812 219.549C537.231 220.522 537.65 221.494 538.082 222.496C539 225 539 225 539 228C533.72 228 528.44 228 523 228C520.859 222.627 518.723 217.251 516.591 211.875C515.865 210.045 515.137 208.215 514.409 206.386C513.363 203.761 512.322 201.135 511.281 198.508C510.789 197.276 510.789 197.276 510.287 196.02C508 190.228 508 190.228 508 188C495.79 188.33 483.58 188.66 471 189C467.813 197.539 467.813 197.539 464.562 206.25C463.893 208.041 463.223 209.832 462.533 211.677C462.003 213.102 461.472 214.528 460.941 215.953C460.666 216.688 460.39 217.424 460.106 218.181C458.894 221.445 457.846 224.617 457 228C453.04 228 449.08 228 445 228C446.876 222.139 448.961 216.543 451.527 210.953C451.869 210.2 452.21 209.446 452.561 208.67C453.683 206.195 454.81 203.723 455.938 201.25C457.557 197.681 459.173 194.11 460.789 190.539C461.209 189.612 461.629 188.684 462.062 187.728C465.226 180.736 468.352 173.728 471.461 166.711C471.91 165.699 472.358 164.686 472.821 163.643C474.583 159.665 476.344 155.686 478.102 151.705C479.322 148.941 480.546 146.177 481.77 143.414C482.301 142.205 482.301 142.205 482.844 140.972C485.392 135.226 488.149 129.602 491 124ZM489 145C486.861 149.965 484.725 154.931 482.591 159.899C481.864 161.59 481.137 163.28 480.409 164.971C479.365 167.395 478.323 169.821 477.281 172.246C476.953 173.007 476.625 173.767 476.287 174.55C474.701 177.671 474.701 177.671 474 181C484.23 181 494.46 181 505 181C500.209 168.896 495.311 156.884 490 145C489.67 145 489.34 145 489 145Z" fill="black"/>
<path d="M32.0003 295C32.0201 295.634 32.04 296.268 32.0604 296.921C32.5731 313.562 32.5731 313.562 35.0003 330C35.3303 331.98 35.6603 333.96 36.0003 336C30.7203 336 25.4403 336 20.0003 336C18.1355 309.893 18.1355 309.893 23.8858 302.094C30.0653 295 30.0653 295 32.0003 295Z" fill="#FE0C0C"/>
<path d="M315 150C315.33 150 315.66 150 316 150C316 155.94 316 161.88 316 168C315.67 168 315.34 168 315 168C314.784 166.391 314.784 166.391 314.563 164.75C314.154 161.249 314.154 161.249 313.313 159C312.808 155.771 314.003 153.052 315 150Z" fill="#FF4E4E"/>
</svg>
