<svg width="161" height="31" viewBox="0 0 161 31" fill="none" xmlns="http://www.w3.org/2000/svg">
<path d="M13.9457 26.1482C21.6477 26.1482 27.8914 20.2947 27.8914 13.0741C27.8914 5.85347 21.6477 0 13.9457 0C6.2437 0 0 5.85347 0 13.0741C0 20.2947 6.2437 26.1482 13.9457 26.1482Z" fill="#1E2225"/>
<path d="M35.3948 23.4431V9.59639H39.2069C40.1415 9.59639 40.9506 9.69896 41.6344 9.90409C42.3182 10.1092 42.8481 10.4796 43.2242 11.0153C43.6117 11.5395 43.8054 12.286 43.8054 13.2547C43.8054 13.8245 43.7598 14.3316 43.6687 14.7761C43.5775 15.2206 43.4066 15.608 43.1558 15.9385C42.9165 16.2576 42.5689 16.5255 42.1131 16.742L44.0106 23.4431H40.848L39.3266 17.2377H38.4548V23.4431H35.3948ZM38.4548 15.477H39.3095C39.7426 15.477 40.0788 15.4029 40.3181 15.2547C40.5574 15.0952 40.7227 14.873 40.8139 14.588C40.9164 14.2917 40.9677 13.9384 40.9677 13.5282C40.9677 12.9356 40.8594 12.474 40.6429 12.1435C40.4264 11.813 40.0275 11.6478 39.4463 11.6478H38.4548V15.477ZM48.3881 23.6141C47.6702 23.6141 47.0548 23.4887 46.5419 23.238C46.0291 22.9759 45.6359 22.5998 45.3624 22.1097C45.0889 21.6083 44.9521 21.01 44.9521 20.3148V16.6907C44.9521 15.9841 45.0889 15.3858 45.3624 14.8958C45.6359 14.4057 46.0291 14.0353 46.5419 13.7846C47.0662 13.5225 47.6816 13.3914 48.3881 13.3914C49.1175 13.3914 49.7215 13.5168 50.2002 13.7675C50.6902 14.0182 51.0549 14.3886 51.2943 14.8787C51.545 15.3687 51.6703 15.9727 51.6703 16.6907V18.6737H47.7044V20.5712C47.7044 20.8219 47.7329 21.0271 47.7898 21.1866C47.8468 21.3462 47.9266 21.4601 48.0292 21.5285C48.1317 21.5969 48.2514 21.6311 48.3881 21.6311C48.5249 21.6311 48.6446 21.6026 48.7471 21.5456C48.8611 21.4772 48.9466 21.3747 49.0036 21.2379C49.0719 21.1011 49.1061 20.9131 49.1061 20.6738V19.631H51.6703V20.5883C51.6703 21.5912 51.3797 22.3491 50.7985 22.8619C50.2173 23.3633 49.4138 23.6141 48.3881 23.6141ZM47.7044 17.3745H49.1061V16.383C49.1061 16.1209 49.0719 15.9157 49.0036 15.7676C48.9466 15.6194 48.8611 15.5169 48.7471 15.4599C48.6446 15.4029 48.5192 15.3744 48.3711 15.3744C48.2343 15.3744 48.1146 15.4086 48.0121 15.477C47.9209 15.5454 47.8468 15.665 47.7898 15.836C47.7329 15.9955 47.7044 16.2291 47.7044 16.5368V17.3745ZM54.9478 23.6141C54.4464 23.6141 54.0247 23.4944 53.6828 23.2551C53.3409 23.0157 53.0845 22.7137 52.9136 22.3491C52.7426 21.973 52.6572 21.5912 52.6572 21.2037C52.6572 20.5883 52.7768 20.0698 53.0161 19.6481C53.2669 19.2264 53.5917 18.8731 53.9905 18.5882C54.3894 18.3033 54.8282 18.064 55.3068 17.8702C55.7855 17.6651 56.2584 17.4828 56.7257 17.3232V16.3317C56.7257 16.1608 56.7086 16.0126 56.6744 15.8872C56.6402 15.7505 56.5832 15.6479 56.5035 15.5795C56.4237 15.4998 56.304 15.4599 56.1445 15.4599C55.9849 15.4599 55.8596 15.4941 55.7684 15.5624C55.6886 15.6308 55.6316 15.7277 55.5974 15.8531C55.5633 15.967 55.5405 16.0981 55.5291 16.2462L55.4607 16.9642L52.8623 16.8616C52.9193 15.6764 53.2327 14.8046 53.8025 14.2462C54.3837 13.6763 55.2499 13.3914 56.4009 13.3914C57.4038 13.3914 58.1503 13.6706 58.6403 14.2291C59.1418 14.7761 59.3925 15.4884 59.3925 16.3659V20.9815C59.3925 21.3917 59.3982 21.7507 59.4096 22.0584C59.4324 22.3661 59.4552 22.634 59.478 22.8619C59.5121 23.0898 59.5406 23.2836 59.5634 23.4431H57.0676C57.0334 23.181 56.9935 22.8961 56.9479 22.5884C56.9023 22.2807 56.8682 22.0983 56.8454 22.0413C56.7314 22.4516 56.5149 22.8163 56.1958 23.1354C55.8881 23.4545 55.4721 23.6141 54.9478 23.6141ZM55.9393 21.7336C56.0533 21.7336 56.1559 21.7108 56.247 21.6653C56.3496 21.6197 56.4408 21.557 56.5206 21.4772C56.6003 21.3974 56.6687 21.3177 56.7257 21.2379V18.5369C56.4978 18.6737 56.2869 18.8161 56.0932 18.9643C55.8995 19.1011 55.7342 19.2549 55.5974 19.4259C55.4607 19.5968 55.3524 19.7848 55.2726 19.99C55.2043 20.1837 55.1701 20.406 55.1701 20.6567C55.1701 20.9872 55.2385 21.2493 55.3752 21.443C55.512 21.6368 55.7 21.7336 55.9393 21.7336ZM61.1697 23.4431V9.59639H63.939V23.4431H61.1697ZM70.2687 23.4431V9.59639H76.4912V11.6819H73.3287V15.118H75.739V17.2377H73.3287V21.3747H76.5254V23.4431H70.2687ZM80.7869 23.6141C79.9208 23.6141 79.1971 23.4203 78.6159 23.0328C78.0461 22.6454 77.5788 22.0129 77.2141 21.1353L79.1116 20.2977C79.294 20.7421 79.5048 21.0954 79.7441 21.3576C79.9949 21.6083 80.2684 21.7336 80.5647 21.7336C80.7812 21.7336 80.9408 21.6881 81.0433 21.5969C81.1573 21.5057 81.2143 21.3804 81.2143 21.2208C81.2143 20.9587 81.1117 20.7194 80.9066 20.5028C80.7128 20.2863 80.3596 19.9672 79.8467 19.5455L79.1287 18.9472C78.6045 18.5027 78.1885 18.0754 77.8808 17.6651C77.5845 17.2434 77.4364 16.7249 77.4364 16.1095C77.4364 15.5738 77.5731 15.1009 77.8466 14.6906C78.1315 14.2803 78.5076 13.9612 78.9749 13.7333C79.4421 13.5054 79.9436 13.3914 80.4792 13.3914C81.2998 13.3914 81.9836 13.6136 82.5306 14.0581C83.0776 14.5026 83.4651 15.1294 83.693 15.9385L81.8639 16.7591C81.7955 16.5425 81.6986 16.326 81.5733 16.1095C81.4479 15.8929 81.2998 15.7106 81.1288 15.5624C80.9579 15.4143 80.7641 15.3402 80.5476 15.3402C80.3653 15.3402 80.2171 15.3915 80.1031 15.4941C80.0006 15.5966 79.9493 15.7334 79.9493 15.9043C79.9493 16.1209 80.0689 16.3545 80.3083 16.6052C80.559 16.8559 80.9009 17.158 81.334 17.5112L82.0348 18.1267C82.3197 18.366 82.599 18.6224 82.8725 18.8959C83.146 19.1694 83.3682 19.4714 83.5392 19.8019C83.7215 20.1324 83.8127 20.5085 83.8127 20.9302C83.8127 21.5 83.6702 21.9901 83.3853 22.4003C83.1004 22.7992 82.7243 23.1012 82.2571 23.3064C81.8012 23.5115 81.3112 23.6141 80.7869 23.6141ZM88.0834 23.5457C87.3427 23.5457 86.7728 23.4374 86.374 23.2209C85.9751 23.0044 85.6959 22.6909 85.5363 22.2807C85.3882 21.859 85.3141 21.3519 85.3141 20.7592V15.3915H84.3568V13.5624H85.3141V10.5537H88.1347V13.5624H89.5365V15.3915H88.1347V20.4857C88.1347 20.7706 88.2145 20.9758 88.374 21.1011C88.545 21.2265 88.7558 21.2892 89.0065 21.2892C89.1547 21.2892 89.2915 21.2835 89.4168 21.2721C89.5422 21.2493 89.6561 21.2322 89.7587 21.2208V23.4089C89.6106 23.4317 89.3769 23.4602 89.0578 23.4944C88.7387 23.5286 88.4139 23.5457 88.0834 23.5457ZM92.7432 23.6141C92.2418 23.6141 91.8201 23.4944 91.4782 23.2551C91.1363 23.0157 90.8799 22.7137 90.7089 22.3491C90.538 21.973 90.4525 21.5912 90.4525 21.2037C90.4525 20.5883 90.5722 20.0698 90.8115 19.6481C91.0622 19.2264 91.387 18.8731 91.7859 18.5882C92.1848 18.3033 92.6236 18.064 93.1022 17.8702C93.5809 17.6651 94.0538 17.4828 94.5211 17.3232V16.3317C94.5211 16.1608 94.504 16.0126 94.4698 15.8872C94.4356 15.7505 94.3786 15.6479 94.2988 15.5795C94.2191 15.4998 94.0994 15.4599 93.9398 15.4599C93.7803 15.4599 93.6549 15.4941 93.5638 15.5624C93.484 15.6308 93.427 15.7277 93.3928 15.8531C93.3586 15.967 93.3358 16.0981 93.3244 16.2462L93.2561 16.9642L90.6577 16.8616C90.7146 15.6764 91.028 14.8046 91.5979 14.2462C92.1791 13.6763 93.0452 13.3914 94.1963 13.3914C95.1992 13.3914 95.9456 13.6706 96.4357 14.2291C96.9371 14.7761 97.1878 15.4884 97.1878 16.3659V20.9815C97.1878 21.3917 97.1935 21.7507 97.2049 22.0584C97.2277 22.3661 97.2505 22.634 97.2733 22.8619C97.3075 23.0898 97.336 23.2836 97.3588 23.4431H94.863C94.8288 23.181 94.7889 22.8961 94.7433 22.5884C94.6977 22.2807 94.6635 22.0983 94.6407 22.0413C94.5268 22.4516 94.3102 22.8163 93.9911 23.1354C93.6834 23.4545 93.2675 23.6141 92.7432 23.6141ZM93.7347 21.7336C93.8487 21.7336 93.9512 21.7108 94.0424 21.6653C94.145 21.6197 94.2362 21.557 94.3159 21.4772C94.3957 21.3974 94.4641 21.3177 94.5211 21.2379V18.5369C94.2931 18.6737 94.0823 18.8161 93.8886 18.9643C93.6948 19.1011 93.5296 19.2549 93.3928 19.4259C93.2561 19.5968 93.1478 19.7848 93.068 19.99C92.9996 20.1837 92.9654 20.406 92.9654 20.6567C92.9654 20.9872 93.0338 21.2493 93.1706 21.443C93.3073 21.6368 93.4954 21.7336 93.7347 21.7336ZM101.94 23.5457C101.199 23.5457 100.629 23.4374 100.23 23.2209C99.8312 23.0044 99.5519 22.6909 99.3924 22.2807C99.2442 21.859 99.1702 21.3519 99.1702 20.7592V15.3915H98.2129V13.5624H99.1702V10.5537H101.991V13.5624H103.393V15.3915H101.991V20.4857C101.991 20.7706 102.071 20.9758 102.23 21.1011C102.401 21.2265 102.612 21.2892 102.863 21.2892C103.011 21.2892 103.148 21.2835 103.273 21.2721C103.398 21.2493 103.512 21.2322 103.615 21.2208V23.4089C103.467 23.4317 103.233 23.4602 102.914 23.4944C102.595 23.5286 102.27 23.5457 101.94 23.5457ZM108.069 23.6141C107.351 23.6141 106.736 23.4887 106.223 23.238C105.71 22.9759 105.317 22.5998 105.044 22.1097C104.77 21.6083 104.633 21.01 104.633 20.3148V16.6907C104.633 15.9841 104.77 15.3858 105.044 14.8958C105.317 14.4057 105.71 14.0353 106.223 13.7846C106.747 13.5225 107.363 13.3914 108.069 13.3914C108.799 13.3914 109.403 13.5168 109.881 13.7675C110.372 14.0182 110.736 14.3886 110.976 14.8787C111.226 15.3687 111.352 15.9727 111.352 16.6907V18.6737H107.386V20.5712C107.386 20.8219 107.414 21.0271 107.471 21.1866C107.528 21.3462 107.608 21.4601 107.71 21.5285C107.813 21.5969 107.933 21.6311 108.069 21.6311C108.206 21.6311 108.326 21.6026 108.428 21.5456C108.542 21.4772 108.628 21.3747 108.685 21.2379C108.753 21.1011 108.787 20.9131 108.787 20.6738V19.631H111.352V20.5883C111.352 21.5912 111.061 22.3491 110.48 22.8619C109.899 23.3633 109.095 23.6141 108.069 23.6141ZM107.386 17.3745H108.787V16.383C108.787 16.1209 108.753 15.9157 108.685 15.7676C108.628 15.6194 108.542 15.5169 108.428 15.4599C108.326 15.4029 108.2 15.3744 108.052 15.3744C107.916 15.3744 107.796 15.4086 107.693 15.477C107.602 15.5454 107.528 15.665 107.471 15.836C107.414 15.9955 107.386 16.2291 107.386 16.5368V17.3745Z" fill="#1E2225"/>
<path d="M10.2015 23.4431V9.59639H14.0136C14.9481 9.59639 15.7572 9.69896 16.441 9.90409C17.1248 10.1092 17.6548 10.4796 18.0308 11.0153C18.4183 11.5395 18.6121 12.286 18.6121 13.2547C18.6121 13.8245 18.5665 14.3316 18.4753 14.7761C18.3841 15.2206 18.2132 15.608 17.9625 15.9385C17.7231 16.2576 17.3756 16.5255 16.9197 16.742L18.8172 23.4431H15.6547L14.1333 17.2377H13.2614V23.4431H10.2015ZM13.2614 15.477H14.1162C14.5492 15.477 14.8854 15.4029 15.1247 15.2547C15.3641 15.0952 15.5293 14.873 15.6205 14.588C15.7231 14.2917 15.7743 13.9384 15.7743 13.5282C15.7743 12.9356 15.6661 12.474 15.4495 12.1435C15.233 11.813 14.8341 11.6478 14.2529 11.6478H13.2614V15.477Z" fill="white"/>
</svg>
