<svg xmlns="http://www.w3.org/2000/svg" version="1.1" xmlns:xlink="http://www.w3.org/1999/xlink" xmlns:svgjs="http://svgjs.dev/svgjs" width="1440" height="560" preserveAspectRatio="none" viewBox="0 0 1440 560"><g mask="url(&quot;#SvgjsMask1188&quot;)" fill="none"><rect width="1440" height="560" x="0" y="0" fill="rgba(81, 89, 96, 1)"></rect><path d="M1440 0L1082.9 0L1440 96.84z" fill="rgba(255, 255, 255, .1)"></path><path d="M1082.9 0L1440 96.84L1440 295L1036.5600000000002 0z" fill="rgba(255, 255, 255, .075)"></path><path d="M1036.56 0L1440 295L1440 336.26L730.52 0z" fill="rgba(255, 255, 255, .05)"></path><path d="M730.52 0L1440 336.26L1440 448.46L500.91999999999996 0z" fill="rgba(255, 255, 255, .025)"></path><path d="M0 560L427.21 560L0 454.64z" fill="rgba(0, 0, 0, .1)"></path><path d="M0 454.64L427.21 560L517.39 560L0 383.07z" fill="rgba(0, 0, 0, .075)"></path><path d="M0 383.07L517.39 560L763.92 560L0 187.75z" fill="rgba(0, 0, 0, .05)"></path><path d="M0 187.75L763.92 560L994.22 560L0 114.28z" fill="rgba(0, 0, 0, .025)"></path></g><defs><mask id="SvgjsMask1188"><rect width="1440" height="560" fill="#ffffff"></rect></mask></defs></svg>