<svg width="37" height="34" viewBox="0 0 37 34" fill="none" xmlns="http://www.w3.org/2000/svg">
<path d="M28.6667 2V10.3333M8.66667 2V10.3333M32.8333 3.66667V6.16667M32.8333 6.16667V8.66667M32.8333 6.16667H35.3333M4.5 3.66667V6.16667M4.5 6.16667V8.66667M4.5 6.16667H2M28.6667 6.16667H8.66667M13.6667 10.3333V23.6667M23.6667 10.3333V23.6667M25.3333 28.6667V32M12 28.6667V32M10.795 28.6667H26.54C28.6017 28.6667 29.6333 28.6667 30.06 28.1617C31.0267 27.0183 29.1733 25.505 28.4967 24.7433C27.735 23.8833 27.1767 23.6667 26.05 23.6667H11.2833C10.1567 23.6667 9.6 23.8833 8.83667 24.7433C8.16 25.505 6.30667 27.0183 7.27333 28.1617C7.7 28.6667 8.73333 28.6667 10.795 28.6667Z" stroke="#999999" stroke-width="3" stroke-linecap="round" stroke-linejoin="round"/>
</svg>
