<?xml version="1.0" encoding="UTF-8" standalone="no"?>
<!-- Created with Inkscape (http://www.inkscape.org/) -->

<svg
   width="264.58334mm"
   height="121.25443mm"
   viewBox="0 0 264.58334 121.25443"
   version="1.1"
   id="svg1"
   inkscape:version="1.3.2 (091e20e, 2023-11-25, custom)"
   sodipodi:docname="Pakuwon Group (Vertical).svg"
   xmlns:inkscape="http://www.inkscape.org/namespaces/inkscape"
   xmlns:sodipodi="http://sodipodi.sourceforge.net/DTD/sodipodi-0.dtd"
   xmlns="http://www.w3.org/2000/svg"
   xmlns:svg="http://www.w3.org/2000/svg">
  <sodipodi:namedview
     id="namedview1"
     pagecolor="#ffffff"
     bordercolor="#000000"
     borderopacity="0.25"
     inkscape:showpageshadow="2"
     inkscape:pageopacity="0.0"
     inkscape:pagecheckerboard="0"
     inkscape:deskcolor="#d1d1d1"
     inkscape:document-units="mm"
     inkscape:zoom="0.72782688"
     inkscape:cx="239.06784"
     inkscape:cy="276.85155"
     inkscape:window-width="1920"
     inkscape:window-height="1094"
     inkscape:window-x="-11"
     inkscape:window-y="-11"
     inkscape:window-maximized="1"
     inkscape:current-layer="layer1" />
  <defs
     id="defs1" />
  <g
     inkscape:label="Layer 1"
     inkscape:groupmode="layer"
     id="layer1"
     transform="translate(-154.78117,-75.406268)">
    <path
       inkscape:connector-curvature="0"
       id="path979"
       style="fill:#231f20;fill-opacity:1;fill-rule:nonzero;stroke:none;stroke-width:1.71208"
       d="m 157.41642,185.55444 c 0.1456,0.009 0.32031,0.0155 0.51361,0.0223 0.1917,0.009 0.48095,0.009 0.85265,0.009 2.18459,0 3.82305,-0.39033 4.91535,-1.18133 1.09574,-0.78242 1.63677,-1.96889 1.63677,-3.54229 0,-1.57854 -0.45523,-2.71707 -1.36796,-3.41046 -0.91598,-0.70024 -2.41919,-1.04608 -4.51647,-1.04608 -0.39893,0 -0.99814,0.0325 -1.79085,0.10274 l -0.0738,0.0155 c 0,0.64546 -0.0291,1.66586 -0.0941,3.0612 -0.0616,1.39363 -0.0922,2.47053 -0.0922,3.22727 z m -2.62118,10.67826 c 0.0495,-1.68471 0.0888,-3.39507 0.12133,-5.13455 0.034,-1.74803 0.0495,-3.50291 0.0495,-5.28689 0,-1.87473 -0.0146,-3.67584 -0.0495,-5.41702 -0.034,-1.74118 -0.0786,-3.43443 -0.1354,-5.07631 0.25867,0.048 0.51531,0.0753 0.75845,0.0942 0.24654,0.0223 0.49647,0.0345 0.74816,0.0345 0.47269,0 1.2772,-0.0359 2.40376,-0.10614 1.1317,-0.077 2.0271,-0.10789 2.6931,-0.10789 2.17435,0 3.85557,0.46396 5.04721,1.39363 1.18819,0.93309 1.78057,2.24968 1.78057,3.95148 0,1.97745 -0.73108,3.5012 -2.19318,4.57296 -1.46041,1.06834 -3.54915,1.60593 -6.26278,1.60593 -0.27906,0 -0.61465,-0.009 -1.00843,-0.0238 -0.3902,-0.017 -0.83207,-0.0359 -1.332,-0.0685 l -0.0194,4.37608 c 0,0.62662 0.0146,1.36624 0.0437,2.22228 0.0291,0.85774 0.0718,1.83707 0.12861,2.93966 -0.33535,-0.0485 -0.59577,-0.0786 -0.77383,-0.0995 -0.17957,-0.01 -0.34264,-0.0243 -0.48794,-0.0243 -0.22615,0 -0.4693,0.0146 -0.72079,0.0437 -0.25333,0.0243 -0.5205,0.0582 -0.79441,0.10968" />
    <path
       inkscape:connector-curvature="0"
       id="path983"
       style="fill:#231f20;fill-opacity:1;fill-rule:nonzero;stroke:none;stroke-width:1.71208"
       d="m 174.46704,186.73406 c 0.10434,0 0.41931,0.005 0.93481,0.007 0.52215,0.0136 0.97757,0.0155 1.3765,0.0155 0.31011,0 0.92282,-0.002 1.83535,-0.0155 0.91424,-0.002 1.67438,-0.007 2.26681,-0.007 l -0.5205,-1.34912 c -0.0786,-0.21572 -0.28779,-0.73791 -0.63348,-1.55799 -0.34409,-0.82009 -1.01183,-2.38664 -1.99115,-4.68767 z m -5.69438,9.49859 c 1.90728,-4.1843 3.63306,-7.9971 5.16194,-11.4555 1.53573,-3.45498 2.96532,-6.72333 4.28532,-9.81877 h 0.58893 c 1.42105,3.5714 2.87116,7.13423 4.35215,10.68166 1.47409,3.544 2.97385,7.07602 4.49934,10.59261 -0.26887,-0.0437 -0.52565,-0.084 -0.76704,-0.11114 -0.24848,-0.0243 -0.48434,-0.0388 -0.72419,-0.0388 -0.24314,0 -0.48623,0.0145 -0.74136,0.0388 -0.24994,0.0243 -0.52215,0.0616 -0.81324,0.11114 -0.35622,-1.11453 -0.755,-2.25137 -1.19329,-3.40873 -0.44018,-1.15565 -0.90569,-2.33527 -1.40391,-3.52688 l -0.5222,-1.22756 c -0.44698,-0.0155 -0.92967,-0.0325 -1.43813,-0.0446 -0.51536,-0.009 -1.28749,-0.0136 -2.3216,-0.0136 -1.05977,0 -1.84559,0.005 -2.36095,0.0136 -0.51875,0.0121 -0.993,0.0291 -1.42959,0.0446 -0.49133,1.12483 -0.98955,2.3387 -1.49122,3.63474 -0.50332,1.29775 -1.05978,2.80267 -1.66754,4.52843 -0.16792,-0.0495 -0.34069,-0.0874 -0.51021,-0.11114 -0.16937,-0.0243 -0.33729,-0.0388 -0.50336,-0.0388 -0.15239,0 -0.31012,0.0145 -0.48095,0.0388 -0.16452,0.0243 -0.34215,0.0616 -0.51875,0.11114" />
    <path
       inkscape:connector-curvature="0"
       id="path987"
       style="fill:#231f20;fill-opacity:1;fill-rule:nonzero;stroke:none;stroke-width:1.71208"
       d="m 190.50748,196.23439 c 0.0942,-1.14708 0.16452,-2.4106 0.20529,-3.80081 0.0485,-1.39192 0.0718,-3.13995 0.0718,-5.24923 0,-2.70851 -0.0243,-5.03351 -0.0718,-6.96816 -0.0388,-1.93978 -0.11114,-3.56455 -0.20529,-4.876 0.20189,0.0446 0.41785,0.0719 0.64032,0.0959 0.22761,0.0223 0.4659,0.0345 0.72249,0.0345 0.28439,0 0.55131,-0.0121 0.8047,-0.0345 0.24459,-0.0238 0.48288,-0.0514 0.7088,-0.0959 -0.0582,0.65915 -0.10774,1.40219 -0.1422,2.23255 -0.034,0.82522 -0.0514,1.73262 -0.0514,2.73419 v 4.66884 c 0.0194,0.0378 0.0388,0.0668 0.0616,0.0771 0.0243,0.0102 0.0548,0.0155 0.10434,0.0155 0.42611,0 1.51175,-0.87829 3.24782,-2.63831 1.73946,-1.75659 3.84363,-4.12097 6.30903,-7.08971 0.21062,0.0446 0.42125,0.0719 0.63348,0.0959 0.21208,0.0223 0.44842,0.0345 0.70705,0.0345 0.26352,0 0.50167,-0.0121 0.72423,-0.0345 0.22761,-0.0238 0.44358,-0.0513 0.65056,-0.0959 -0.78926,0.59751 -2.313,2.04079 -4.57805,4.32299 l -0.55472,0.553 -4.4891,4.43086 c 1.45871,1.85247 4.11415,4.96332 7.95089,9.33083 l 1.96892,2.25652 c -0.33196,-0.0514 -0.64207,-0.0888 -0.93826,-0.10968 -0.29798,-0.0291 -0.58208,-0.0437 -0.8509,-0.0437 -0.2776,0 -0.55981,0.0146 -0.84061,0.0437 -0.28585,0.0194 -0.57869,0.0582 -0.87832,0.10968 -0.73447,-1.01528 -1.39533,-1.91068 -1.98086,-2.68968 -0.58723,-0.77214 -1.11971,-1.45526 -1.59736,-2.04593 l -3.50634,-4.34012 c -0.45862,-0.54786 -0.8492,-0.93137 -1.16761,-1.15052 -0.31837,-0.21742 -0.64547,-0.33899 -0.97592,-0.35612 l -0.0146,3.63988 c 0,1.48095 0.0146,2.77014 0.0485,3.85902 0.034,1.08888 0.0806,2.11784 0.14365,3.08347 -0.26352,-0.0514 -0.51875,-0.0888 -0.76189,-0.10968 -0.24848,-0.0291 -0.47755,-0.0437 -0.70536,-0.0437 -0.21402,0 -0.43484,0.0146 -0.65745,0.0437 -0.22616,0.0194 -0.47269,0.0582 -0.73447,0.10968" />
    <path
       inkscape:connector-curvature="0"
       id="path991"
       style="fill:#231f20;fill-opacity:1;fill-rule:nonzero;stroke:none;stroke-width:1.71208"
       d="m 208.37643,176.17911 c -0.01,-0.36637 -0.0194,-0.64717 -0.0291,-0.83892 0.20869,0.0446 0.42271,0.0719 0.64202,0.0941 0.21937,0.0238 0.45183,0.0359 0.70541,0.0359 0.29458,0 0.55811,-0.0155 0.78926,-0.0412 0.22422,-0.0272 0.44358,-0.0599 0.65401,-0.10099 -0.0388,2.60407 -0.0752,4.93421 -0.0942,6.98528 -0.0243,2.04765 -0.0291,3.4293 -0.0291,4.13638 0,1.87644 0.11454,3.29918 0.34749,4.26137 0.23634,0.95534 0.62489,1.76515 1.1779,2.4243 0.55301,0.67627 1.26351,1.1916 2.12296,1.54772 0.85779,0.34758 1.82337,0.52388 2.89858,0.52388 1.06318,0 2.03735,-0.18151 2.91736,-0.54443 0.87658,-0.37325 1.58882,-0.90055 2.13839,-1.58538 0.54618,-0.68826 0.93307,-1.56313 1.15563,-2.62976 0.22616,-1.05977 0.33729,-2.91053 0.33729,-5.53343 0,-1.74461 -0.005,-3.40533 -0.0291,-4.98558 -0.0243,-1.57682 -0.0515,-3.10399 -0.0976,-4.58836 0.14705,0.0446 0.30332,0.0719 0.45716,0.0941 0.15433,0.0238 0.31497,0.0359 0.48794,0.0359 0.19703,0 0.37854,-0.0121 0.54272,-0.0393 0.16598,-0.0238 0.32177,-0.0513 0.47415,-0.0907 -0.0548,1.22071 -0.0922,2.33869 -0.11307,3.35567 -0.0291,1.0204 -0.0388,1.76173 -0.0388,2.22056 v 0.78756 c 0,3.89498 -0.0922,6.54699 -0.27905,7.96288 -0.1917,1.41075 -0.51536,2.52189 -0.97247,3.32485 -0.70711,1.2053 -1.68467,2.11612 -2.9345,2.72733 -1.24983,0.61465 -2.76158,0.91942 -4.53361,0.91942 -3.03034,0 -5.23551,-0.73622 -6.62914,-2.20518 -1.39192,-1.46725 -2.09388,-3.80595 -2.09388,-7.01267 0,-0.11473 0.0243,-0.87658 0.067,-2.2822 0.0388,-1.40733 0.065,-2.74446 0.065,-4.01825 0,-0.95363 -0.034,-2.60407 -0.10094,-4.94106" />
    <path
       inkscape:connector-curvature="0"
       id="path995"
       style="fill:#231f20;fill-opacity:1;fill-rule:nonzero;stroke:none;stroke-width:1.71208"
       d="m 235.55399,196.23439 c -0.82178,-2.7085 -1.74291,-5.68752 -2.75304,-8.94047 -1.01353,-3.24781 -2.27364,-7.23524 -3.7837,-11.95373 0.22082,0.0446 0.44504,0.0719 0.68658,0.0959 0.2378,0.0223 0.49647,0.0345 0.77383,0.0345 0.27566,0 0.53418,-0.0121 0.77043,-0.0345 0.24315,-0.0238 0.4727,-0.0514 0.68658,-0.0959 0.8492,3.11085 1.70864,6.15321 2.58521,9.14079 0.87488,2.98757 1.78057,5.93235 2.71708,8.84117 1.05633,-2.89512 2.06132,-5.84333 3.0218,-8.84117 0.96049,-2.99956 1.87302,-6.04535 2.72737,-9.14079 0.14899,0.0446 0.30478,0.0719 0.46396,0.0959 0.15773,0.0223 0.32856,0.0345 0.50851,0.0345 0.1917,0 0.36787,-0.0121 0.54098,-0.0345 0.16258,-0.0238 0.32176,-0.0514 0.4727,-0.0959 0.89884,2.93622 1.83366,5.88099 2.81467,8.83261 0.97757,2.95334 1.99968,5.90154 3.05092,8.85145 1.00499,-2.88999 1.95174,-5.80908 2.84035,-8.75386 0.88681,-2.95847 1.71379,-5.93235 2.47908,-8.9302 0.15433,0.0393 0.30623,0.0668 0.46929,0.0907 0.15579,0.0272 0.3305,0.0393 0.52045,0.0393 0.20044,0 0.38874,-0.0121 0.55816,-0.0344 0.17811,-0.0238 0.3373,-0.0514 0.49138,-0.0959 -1.39707,4.09529 -3.41219,10.10126 -6.04535,18.02305 l -0.94166,2.87115 c -0.16937,-0.0388 -0.34263,-0.0718 -0.5136,-0.0927 -0.17472,-0.0194 -0.35962,-0.0243 -0.55816,-0.0243 -0.20869,0 -0.40039,0.005 -0.58039,0.0243 -0.17957,0.0194 -0.35282,0.0514 -0.5222,0.0927 -0.76529,-2.62804 -1.61104,-5.35538 -2.54416,-8.18031 -0.93306,-2.82664 -1.96032,-5.80052 -3.08513,-8.91308 -1.59222,4.84861 -2.84035,8.61347 -3.7426,11.30657 -0.90054,2.69139 -1.56144,4.61921 -1.97576,5.78682 -0.21402,-0.0514 -0.40232,-0.0888 -0.57354,-0.10968 -0.16792,-0.0291 -0.33195,-0.0437 -0.49308,-0.0437 -0.16258,0 -0.33389,0.0146 -0.51021,0.0437 -0.18151,0.0194 -0.36301,0.0582 -0.55641,0.10968" />
    <path
       inkscape:connector-curvature="0"
       id="path999"
       style="fill:#231f20;fill-opacity:1;fill-rule:nonzero;stroke:none;stroke-width:1.71208"
       d="m 271.0522,195.48963 c 2.62462,0 4.64828,-0.83892 6.06419,-2.50819 1.42099,-1.68126 2.1281,-4.06276 2.1281,-7.17019 0,-3.15878 -0.70021,-5.56254 -2.09214,-7.20271 -1.39023,-1.63846 -3.42418,-2.45683 -6.10015,-2.45683 -2.63831,0 -4.67056,0.85261 -6.0967,2.54757 -1.42105,1.7001 -2.12985,4.11241 -2.12985,7.23182 0,3.08174 0.7071,5.44441 2.1264,7.088 1.4159,1.64531 3.45155,2.47053 6.10015,2.47053 m -0.01,1.17106 c -3.49095,0 -6.24569,-0.97077 -8.26081,-2.90197 -2.01512,-1.93293 -3.02695,-4.57296 -3.02695,-7.91151 0,-3.29233 1.02896,-5.92037 3.07835,-7.89268 2.05103,-1.97061 4.78693,-2.95505 8.20941,-2.95505 3.46864,0 6.20629,0.97246 8.22136,2.92252 2.01857,1.95519 3.02355,4.59522 3.02355,7.92521 0,3.22897 -1.02726,5.8399 -3.08518,7.82591 -2.06817,1.98773 -4.7801,2.98757 -8.15973,2.98757" />
    <path
       inkscape:connector-curvature="0"
       id="path1003"
       style="fill:#231f20;fill-opacity:1;fill-rule:nonzero;stroke:none;stroke-width:1.71208"
       d="m 286.07396,196.21212 c 0.13347,-2.7496 0.22956,-5.61904 0.30138,-8.61689 0.0718,-3.00299 0.10968,-6.13096 0.10968,-9.39075 v -3.2461 h 0.55981 c 2.18979,2.52703 4.48226,5.07631 6.86544,7.63416 2.39352,2.56469 5.10885,5.37935 8.15808,8.44739 0,-0.0993 0.005,-0.25683 0.0146,-0.46741 0.034,-1.03923 0.0548,-1.78741 0.0548,-2.22399 0,-2.45854 -0.0243,-4.7921 -0.0704,-7.00924 -0.0495,-2.21372 -0.11794,-4.20658 -0.20723,-5.97345 0.27032,0.0359 0.48288,0.0633 0.61465,0.0822 0.1388,0.009 0.26692,0.0223 0.38533,0.0223 0.11648,0 0.25528,-0.0136 0.3902,-0.0223 0.14559,-0.0189 0.34069,-0.0461 0.58553,-0.0822 -0.0874,2.32672 -0.15773,4.6774 -0.20189,7.04863 -0.0485,2.37636 -0.0752,4.80238 -0.0752,7.27976 0,0.89199 0.01,1.8576 0.0194,2.88142 0.01,1.02725 0.0291,2.38324 0.0548,4.06277 h -0.39893 c -0.93311,-1.16592 -2.04079,-2.46197 -3.32314,-3.88984 -1.27894,-1.42959 -2.78041,-3.04922 -4.50278,-4.8606 l -7.39104,-7.78995 c -0.01,0.22601 -0.0388,0.80981 -0.0631,1.73947 -0.0291,0.93993 -0.0437,1.68468 -0.0437,2.25138 0,1.24126 0.0243,2.83349 0.0704,4.76814 0.0485,1.9278 0.11308,4.38292 0.20529,7.3551 -0.17957,-0.0437 -0.35962,-0.0752 -0.53928,-0.0961 -0.17471,-0.0243 -0.34263,-0.034 -0.50507,-0.034 -0.16258,0 -0.33049,0.0146 -0.49307,0.0388 -0.16598,0.0194 -0.35768,0.0548 -0.57185,0.0908" />
    <path
       inkscape:connector-curvature="0"
       id="path1007"
       style="fill:#231f20;fill-opacity:1;fill-rule:nonzero;stroke:none;stroke-width:1.71208"
       d="m 335.53421,195.33724 c -1.43299,0.41786 -2.8352,0.73278 -4.2083,0.9502 -1.3765,0.21936 -2.68451,0.32856 -3.9292,0.32856 -3.50119,0 -6.27651,-0.94505 -8.31555,-2.84032 -2.04254,-1.89013 -3.05782,-4.44113 -3.05782,-7.65812 0,-3.3882 1.09749,-6.095 3.29237,-8.1221 2.19313,-2.02539 5.13277,-3.03723 8.81548,-3.03723 1.47239,0 2.84034,0.16263 4.10725,0.49136 1.26182,0.32701 2.40376,0.81838 3.41734,1.46212 -0.15773,0.46911 -0.29604,0.92453 -0.42125,1.36453 -0.11648,0.44513 -0.22276,0.88514 -0.30624,1.32344 -0.82008,-1.17449 -1.82681,-2.04936 -3.0201,-2.62976 -1.19674,-0.57354 -2.61948,-0.86631 -4.27338,-0.86631 -2.57838,0 -4.65513,0.88857 -6.23536,2.66742 -1.56654,1.77029 -2.35411,4.13124 -2.35411,7.07944 0,2.90711 0.82008,5.24067 2.4568,6.99727 1.63677,1.75659 3.80428,2.6383 6.50422,2.6383 0.86289,0 1.7052,-0.082 2.51504,-0.25188 0.8115,-0.17617 1.62474,-0.43484 2.44657,-0.79439 0,-0.19174 0.0146,-0.63175 0.0388,-1.3337 0.034,-0.70195 0.0529,-1.25838 0.0529,-1.67099 0,-0.4777 -0.0146,-1.00328 -0.034,-1.57683 -0.0243,-0.57012 -0.0563,-1.35254 -0.0975,-2.33699 0.34943,0.0446 0.6129,0.0771 0.78582,0.0925 0.17277,0.0136 0.34263,0.0238 0.49992,0.0393 0.14899,-0.0155 0.31691,-0.0257 0.49308,-0.0393 0.17811,-0.0155 0.43824,-0.048 0.77903,-0.0925 -0.0194,1.08547 -0.034,2.03053 -0.0582,2.83007 -0.0194,0.80125 -0.0291,1.46554 -0.0291,1.98259 0,0.59923 0.01,1.14367 0.0291,1.64188 0.0243,0.48623 0.0529,0.94679 0.10434,1.3611" />
    <path
       inkscape:connector-curvature="0"
       id="path1011"
       style="fill:#231f20;fill-opacity:1;fill-rule:nonzero;stroke:none;stroke-width:1.71208"
       d="m 342.53321,185.04766 c 0.12666,0.0223 0.26352,0.0359 0.40572,0.0359 0.14705,0.005 0.34214,0.0102 0.59067,0.0102 2.29073,0 3.99768,-0.37495 5.12424,-1.1197 1.1317,-0.74304 1.69325,-1.87302 1.69325,-3.38307 0,-1.37308 -0.44018,-2.40547 -1.32345,-3.09886 -0.87827,-0.70195 -2.18973,-1.04094 -3.93434,-1.04094 -0.31496,0 -0.94165,0.0238 -1.87646,0.0873 -0.21936,0.005 -0.39019,0.0189 -0.50677,0.0272 -0.0597,0.45882 -0.10288,0.93994 -0.13006,1.44842 -0.0291,0.50336 -0.0437,1.0632 -0.0437,1.66756 v 1.33885 z m -2.68112,11.18504 c 0.0548,-1.07352 0.0976,-2.30449 0.12473,-3.68442 0.0291,-1.39021 0.0388,-3.6296 0.0388,-6.73874 0,-2.64002 -0.01,-4.75616 -0.0388,-6.35866 -0.0291,-1.59395 -0.0786,-2.96532 -0.1422,-4.1107 0.0772,0.0102 0.17617,0.017 0.29604,0.017 0.55816,0.0272 0.93137,0.0446 1.11972,0.0446 0.37854,0 1.11112,-0.0189 2.18973,-0.0616 1.0872,-0.0412 1.98945,-0.0616 2.69141,-0.0616 2.30616,0 4.03023,0.40577 5.16703,1.22927 1.14369,0.8218 1.71209,2.05963 1.71209,3.72377 0,1.44328 -0.52904,2.65372 -1.59566,3.6433 -1.05634,0.98274 -2.56814,1.65558 -4.53186,2.01169 1.45526,1.93123 4.02849,5.18931 7.73003,9.76058 l 0.46056,0.58554 c -0.33584,-0.0495 -0.65576,-0.0888 -0.95194,-0.11114 -0.30138,-0.0243 -0.59068,-0.0388 -0.87658,-0.0388 -0.28099,0 -0.565,0.0146 -0.84745,0.0388 -0.29119,0.0291 -0.60097,0.0684 -0.92797,0.11114 -0.78757,-1.14714 -1.48778,-2.15382 -2.09903,-3.00644 -0.6112,-0.85433 -1.18475,-1.62476 -1.71204,-2.31815 l -3.34371,-4.28876 c -0.16792,-0.23969 -0.34603,-0.41091 -0.53419,-0.51876 -0.1883,-0.10444 -0.41251,-0.15409 -0.66939,-0.15409 -0.11793,0 -0.28585,0.0121 -0.50507,0.0447 -0.0388,0.009 -0.067,0.0155 -0.0738,0.0155 v 5.60535 c 0,0.68825 0.0145,1.41588 0.0437,2.17947 0.0291,0.77215 0.065,1.58025 0.11308,2.44144 -0.26886,-0.0495 -0.51705,-0.0888 -0.74476,-0.11114 -0.22616,-0.0243 -0.45377,-0.0388 -0.66769,-0.0388 -0.21937,0 -0.44843,0.0146 -0.68483,0.0388 -0.23635,0.0243 -0.48434,0.0616 -0.73962,0.11114" />
    <path
       inkscape:connector-curvature="0"
       id="path1015"
       style="fill:#231f20;fill-opacity:1;fill-rule:nonzero;stroke:none;stroke-width:1.71208"
       d="m 367.80518,195.48963 c 2.62293,0 4.64659,-0.83892 6.06589,-2.50819 1.41245,-1.68126 2.1281,-4.06276 2.1281,-7.17019 0,-3.15878 -0.69337,-5.56254 -2.09044,-7.20271 -1.39363,-1.63846 -3.42928,-2.45683 -6.10355,-2.45683 -2.64001,0 -4.66881,0.85261 -6.095,2.54757 -1.421,1.7001 -2.13325,4.11241 -2.13325,7.23182 0,3.08174 0.7088,5.44441 2.1281,7.088 1.41935,1.64531 3.4533,2.47053 6.10015,2.47053 m -0.005,1.17106 c -3.49606,0 -6.24735,-0.97077 -8.26247,-2.90197 -2.01686,-1.93293 -3.02694,-4.57296 -3.02694,-7.91151 0,-3.29233 1.02381,-5.92037 3.07659,-7.89268 2.05103,-1.97061 4.78869,-2.95505 8.21282,-2.95505 3.46523,0 6.20114,0.97246 8.21796,2.92252 2.01686,1.95519 3.02525,4.59522 3.02525,7.92521 0,3.22897 -1.03066,5.8399 -3.09198,7.82591 -2.05967,1.98773 -4.7767,2.98757 -8.15123,2.98757" />
    <path
       inkscape:connector-curvature="0"
       id="path1019"
       style="fill:#231f20;fill-opacity:1;fill-rule:nonzero;stroke:none;stroke-width:1.71208"
       d="m 383.13512,176.17911 c -0.01,-0.36637 -0.0194,-0.64717 -0.0291,-0.83892 0.20723,0.0446 0.42125,0.0719 0.64032,0.0941 0.21742,0.0238 0.45037,0.0359 0.70196,0.0359 0.29944,0 0.56156,-0.0155 0.79096,-0.0412 0.22762,-0.0272 0.44358,-0.0599 0.65576,-0.10099 -0.0437,2.60407 -0.0738,4.93421 -0.0961,6.98528 -0.0194,2.04765 -0.0291,3.4293 -0.0291,4.13638 0,1.87644 0.11647,3.29918 0.35088,4.26137 0.23441,0.95534 0.62149,1.76515 1.17281,2.4243 0.55471,0.67627 1.26521,1.1916 2.11781,1.54772 0.86119,0.34758 1.82852,0.52388 2.90368,0.52388 1.06492,0 2.04084,-0.18151 2.91397,-0.54443 0.88172,-0.37325 1.59226,-0.90055 2.14009,-1.58538 0.54787,-0.68826 0.93481,-1.56313 1.15907,-2.62976 0.22276,-1.05977 0.33729,-2.91053 0.33729,-5.53343 0,-1.74461 -0.005,-3.40533 -0.034,-4.98558 -0.0194,-1.57682 -0.0529,-3.10399 -0.0888,-4.58836 0.14559,0.0446 0.29944,0.0719 0.45037,0.0941 0.15384,0.0238 0.31497,0.0359 0.48624,0.0359 0.20043,0 0.38339,-0.0121 0.54272,-0.0393 0.17277,-0.0238 0.3271,-0.0513 0.47609,-0.0907 -0.0495,1.22071 -0.0888,2.33869 -0.11453,3.35567 -0.0194,1.0204 -0.034,1.76173 -0.034,2.22056 v 0.78756 c 0,3.89498 -0.0961,6.54699 -0.2844,7.96288 -0.1883,1.41075 -0.5153,2.52189 -0.97072,3.32485 -0.7071,1.2053 -1.68127,2.11612 -2.9311,2.72733 -1.25153,0.61465 -2.76328,0.91942 -4.5387,0.91942 -3.02695,0 -5.23556,-0.73622 -6.62574,-2.20518 -1.39538,-1.46725 -2.09219,-3.80595 -2.09219,-7.01267 0,-0.11473 0.0194,-0.87658 0.065,-2.2822 0.0388,-1.40733 0.0631,-2.74446 0.0631,-4.01825 0,-0.95363 -0.034,-2.60407 -0.0995,-4.94106" />
    <path
       inkscape:connector-curvature="0"
       id="path1023"
       style="fill:#231f20;fill-opacity:1;fill-rule:nonzero;stroke:none;stroke-width:1.71208"
       d="m 408.56633,185.55444 c 0.14899,0.009 0.32176,0.0155 0.51705,0.0223 0.18684,0.009 0.47415,0.009 0.85604,0.009 2.1812,0 3.82136,-0.39033 4.91196,-1.18133 1.0906,-0.78242 1.64016,-1.96889 1.64016,-3.54229 0,-1.57854 -0.45862,-2.71707 -1.37479,-3.41046 -0.91428,-0.70024 -2.42259,-1.04608 -4.51648,-1.04608 -0.39892,0 -0.99644,0.0325 -1.78741,0.10274 l -0.0738,0.0155 c 0,0.64546 -0.034,1.66586 -0.0961,3.0612 -0.0597,1.39363 -0.0908,2.47053 -0.0908,3.22727 z m -2.62118,10.67826 c 0.0495,-1.68471 0.0854,-3.39507 0.12327,-5.13455 0.034,-1.74803 0.0485,-3.50291 0.0485,-5.28689 0,-1.87473 -0.0146,-3.67584 -0.0485,-5.41702 -0.0388,-1.74118 -0.0786,-3.43443 -0.13686,-5.07631 0.25867,0.048 0.51191,0.0753 0.76014,0.0942 0.25188,0.0223 0.49648,0.0345 0.74647,0.0345 0.47609,0 1.28234,-0.0359 2.40715,-0.10614 1.13,-0.077 2.02371,-0.10789 2.6914,-0.10789 2.1795,0 3.85902,0.46396 5.04552,1.39363 1.18989,0.93309 1.78226,2.24968 1.78226,3.95148 0,1.97745 -0.73107,3.5012 -2.19488,4.57296 -1.457,1.06834 -3.54914,1.60593 -6.26107,1.60593 -0.281,0 -0.61635,-0.009 -1.00844,-0.0238 -0.38873,-0.017 -0.83891,-0.0359 -1.33369,-0.0685 l -0.0146,4.37608 c 0,0.62662 0.0146,1.36624 0.0388,2.22228 0.0291,0.85774 0.0704,1.83707 0.12861,2.93966 -0.3373,-0.0485 -0.59577,-0.0786 -0.77214,-0.0995 -0.17617,-0.01 -0.34408,-0.0243 -0.48963,-0.0243 -0.22761,0 -0.46736,0.0146 -0.71569,0.0437 -0.25673,0.0243 -0.52045,0.0582 -0.79951,0.10968" />
    <path
       inkscape:connector-curvature="0"
       id="path1025"
       style="fill:#ffffff;fill-opacity:1;fill-rule:nonzero;stroke:none;stroke-width:1.71208"
       d="M 324.06329,157.20243 H 243.13677 V 75.625321 h 80.92652 z" />
    <path
       inkscape:connector-curvature="0"
       id="path1029"
       style="fill:#ec1c24;fill-opacity:1;fill-rule:evenodd;stroke:none;stroke-width:1.71208"
       d="m 245.91548,146.72451 v 10.68166 h -3.04408 v -4.74418 c 0.80125,-2.89341 2.09389,-4.83833 3.04408,-5.93748 m -3.04408,-71.219037 3.04408,-0.05649 v 54.358487 c -1.74805,1.49293 -2.89339,3.14166 -2.89339,3.14166 0,0 -0.0514,0.79783 -0.15093,2.09216 z m 3.04408,81.900697 h 3.04578 c -3.89323,-2.79583 -1.7977,-11.82704 -1.7977,-11.82704 0,0 -0.49817,0.34583 -1.24808,1.14538 z m 0,-81.957192 79.8599,-0.04271 c -14.72558,11.227811 -26.20334,27.299092 -27.15868,45.917942 -0.94166,18.91162 12.68134,27.5987 19.32251,30.14456 -0.35427,-4.69109 -0.50506,-8.83775 -0.54961,-12.57692 -1.65041,-2.24797 -5.3451,-8.4337 -5.49234,-19.9149 2.09388,9.63044 2.84549,12.67794 5.53689,16.66708 0.15045,-11.8784 1.85074,-19.61528 4.19456,-29.59498 -0.49477,3.59365 -0.74816,7.68723 -0.8492,11.92805 1.05124,-0.79783 3.4995,-2.99443 4.99587,-5.6413 v 0.65059 c -0.49992,1.54601 -2.30446,4.54214 -4.99587,6.08815 -0.24993,16.17401 1.69496,34.43503 2.19488,38.33172 h -42.62557 c -0.0437,-0.79783 -0.0961,-2.24453 -0.0961,-3.99256 14.77697,-4.74075 13.4261,-23.3596 13.4261,-23.3596 0,0 -0.24654,-15.27174 -7.33624,-24.15229 -8.78981,4.73903 -21.50541,17.5625 -21.6612,30.14456 -0.14899,12.5735 7.93546,17.4632 10.63026,18.26616 -0.0437,-1.69837 -0.44697,-13.57335 2.09903,-22.45904 -0.20723,15.67408 0.44697,22.75694 0.79611,25.55277 h -23.05482 c 7.63757,-3.79396 8.33094,-19.71972 2.29417,-27.10391 -4.19286,-5.03694 -8.68366,-2.94477 -11.53085,-0.49479 z" />
  </g>
</svg>
