<svg width="34" height="30" viewBox="0 0 34 30" fill="none" xmlns="http://www.w3.org/2000/svg">
<path d="M16.6667 28.3333C15.6667 28.3333 14.875 28.6111 14.2917 29.1667C13.7083 29.7222 12.6389 30 11.0833 30C9.52778 30 8.45834 29.7222 7.87501 29.1667C7.29167 28.6111 6.50001 28.3333 5.50001 28.3333C4.69445 28.3333 4.08334 28.5211 3.66667 28.8967C3.25001 29.2722 2.59723 29.5706 1.70834 29.7917C1.26389 29.9028 0.868339 29.8056 0.521672 29.5C0.175005 29.1945 0.00111663 28.8056 5.51877e-06 28.3333C-0.00110559 27.8611 0.165561 27.4517 0.500005 27.105C0.83445 26.7583 1.20945 26.4733 1.62501 26.25C2.09723 26 2.59723 25.7289 3.12501 25.4367C3.65278 25.1444 4.44445 24.9989 5.50001 25C7.05556 25 8.125 25.2778 8.70834 25.8333C9.29167 26.3889 10.0833 26.6667 11.0833 26.6667C12.0833 26.6667 12.875 26.3889 13.4583 25.8333C14.0417 25.2778 15.1111 25 16.6667 25C18.2222 25 19.2917 25.2778 19.875 25.8333C20.4583 26.3889 21.25 26.6667 22.25 26.6667C23.25 26.6667 24.0417 26.3889 24.625 25.8333C25.2083 25.2778 26.2778 25 27.8333 25C28.8889 25 29.6806 25.1461 30.2083 25.4383C30.7361 25.7306 31.2361 26.0011 31.7083 26.25C32.125 26.4722 32.5 26.7572 32.8333 27.105C33.1667 27.4528 33.3333 27.8622 33.3333 28.3333C33.3333 28.8044 33.16 29.1933 32.8133 29.5C32.4667 29.8067 32.0706 29.9039 31.625 29.7917C30.7361 29.5694 30.0833 29.2711 29.6667 28.8967C29.25 28.5222 28.6389 28.3344 27.8333 28.3333C26.8333 28.3333 26.0417 28.6111 25.4583 29.1667C24.875 29.7222 23.8056 30 22.25 30C20.6944 30 19.625 29.7222 19.0417 29.1667C18.4583 28.6111 17.6667 28.3333 16.6667 28.3333ZM16.6667 20.8333C15.6111 20.8333 14.8261 21.1111 14.3117 21.6667C13.7972 22.2222 12.7211 22.5 11.0833 22.5C9.44556 22.5 8.35501 22.2222 7.81167 21.6667C7.26834 21.1111 6.49778 20.8333 5.50001 20.8333C4.69445 20.8333 4.08334 21.0211 3.66667 21.3967C3.25001 21.7722 2.59723 22.0706 1.70834 22.2917C1.26389 22.4028 0.868339 22.3056 0.521672 22C0.175005 21.6944 0.00111663 21.3056 5.51877e-06 20.8333C-0.00110559 20.3611 0.165561 19.9517 0.500005 19.605C0.83445 19.2583 1.20945 18.9733 1.62501 18.75C2.09723 18.5 2.59723 18.2289 3.12501 17.9367C3.65278 17.6444 4.44445 17.4989 5.50001 17.5C7.05556 17.5 8.13223 17.7778 8.73001 18.3333C9.32778 18.8889 10.1122 19.1667 11.0833 19.1667C12.0833 19.1667 12.875 18.8889 13.4583 18.3333C14.0417 17.7778 15.1111 17.5 16.6667 17.5C18.2222 17.5 19.2917 17.7778 19.875 18.3333C20.4583 18.8889 21.25 19.1667 22.25 19.1667C23.25 19.1667 24.0417 18.8889 24.625 18.3333C25.2083 17.7778 26.2778 17.5 27.8333 17.5C28.8889 17.5 29.6806 17.6461 30.2083 17.9383C30.7361 18.2306 31.2361 18.5011 31.7083 18.75C32.125 18.9722 32.5 19.2572 32.8333 19.605C33.1667 19.9528 33.3333 20.3622 33.3333 20.8333C33.3333 21.3044 33.16 21.6933 32.8133 22C32.4667 22.3067 32.0706 22.4039 31.625 22.2917C30.7361 22.0694 30.0833 21.7711 29.6667 21.3967C29.25 21.0222 28.6389 20.8344 27.8333 20.8333C26.8333 20.8333 26.0622 21.1111 25.52 21.6667C24.9778 22.2222 23.8878 22.5 22.25 22.5C20.6667 22.5 19.5906 22.2222 19.0217 21.6667C18.4528 21.1111 17.6678 20.8333 16.6667 20.8333ZM8.16667 14L13.7083 8.45834L12.0417 6.79167C11.3472 6.09722 10.6322 5.54834 9.89667 5.145C9.16112 4.74167 8.32056 4.47111 7.37501 4.33334C6.81945 4.22222 6.34056 3.95834 5.93834 3.54167C5.53612 3.125 5.33445 2.63889 5.33334 2.08334C5.33334 1.5 5.54167 1.00667 5.95834 0.603336C6.37501 0.200002 6.86112 0.0266688 7.41667 0.0833355C8.91667 0.222224 10.2083 0.535002 11.2917 1.02167C12.375 1.50834 13.4444 2.27889 14.5 3.33334L25.1667 14C24.6944 14.3056 24.2361 14.5489 23.7917 14.73C23.3472 14.9111 22.8333 15.0011 22.25 15C21.25 15 20.4583 14.7222 19.875 14.1667C19.2917 13.6111 18.2222 13.3333 16.6667 13.3333C15.1111 13.3333 14.0417 13.6111 13.4583 14.1667C12.875 14.7222 12.0833 15 11.0833 15C10.5 15 9.98612 14.91 9.54167 14.73C9.09723 14.55 8.63889 14.3067 8.16667 14ZM24.5 2.2553e-06C25.6667 2.2553e-06 26.6528 0.410002 27.4583 1.23C28.2639 2.05 28.6667 3.02889 28.6667 4.16667C28.6667 5.33334 28.2639 6.31945 27.4583 7.125C26.6528 7.93056 25.6667 8.33334 24.5 8.33334C23.3333 8.33334 22.3472 7.93056 21.5417 7.125C20.7361 6.31945 20.3333 5.33334 20.3333 4.16667C20.3333 3.02778 20.7361 2.04834 21.5417 1.22834C22.3472 0.408336 23.3333 -0.00110886 24.5 2.2553e-06Z" fill="#999999"/>
</svg>
